<?xml version="1.0" standalone="no"?>
<!DOCTYPE svg PUBLIC "-//W3C//DTD SVG 1.1//EN" "http://www.w3.org/Graphics/SVG/1.1/DTD/svg11.dtd">
<svg xmlns="http://www.w3.org/2000/svg" id="a" data-name="Calque 1" width="300" height="300" viewBox="0 0 300 300">
  <path d="M140.396,77.705c-3.641,0-7.115,2.808-7.115,7.115,0,3.796,3.474,6.938,6.949,6.938,3.974,0,7.115-3.141,7.115-6.938,0-4.307-3.141-7.115-6.949-7.115Z"/>
  <path d="M198.664,107.332c-2.64,0-6,1.59-9.93,3.48-3.44,1.67-9.76,5.04-13.06,7.02,0-4.96.33-9.66.5-12.15-5.79,2.99-14.39,5.79-21.17,6.95v1.65c8.27,1.82,10.07,2.66,10.07,12.75v.61l-16.51,17.14v-17.27c0-7.43.17-17.19.34-20.49-6.63,3.13-13.89,5.12-20.51,6.45v1.65c8.76,1.66,9.42,2.47,9.42,13.71v26.55l-7.81,7.92c-.87.86-1.76,1.72-2.7,2.5-.7.58-1.44,1.13-2.22,1.6-2.84,1.71-3.73,1.94-6.7,2.57-.6.14-1.26.12-1.92.12-3.03,0-5.86-.91-7.78-4.29-1.53-2.7-2.48-6.98-2.48-13.66v-45.13l3.96-.27,16.05,3.95c.05.02.11.02.19.02.16,0,.32-.04.45-.13.12-.09.22-.2.28-.34.04-.09.05-.18.06-.24.15-1.21.27-2.07.31-2.2.23-.7-.31-1-1.29-1.52-.56-.3-1.4-.73-2.49-1.27-1.78-.88-4.3-2.1-7.54-3.67-4.82-2.3-9.76-4.62-10.81-5.12l.31-6.13c.14-2.72-.19-5.31-.98-7.72-.33-1.01-.71-1.87-1.21-2.67l-.11-.2c-.36-.61-.73-1.25-1.4-1.58-.21-.1-.44-.16-.69-.2-.58-.06-1.18.12-1.72.5-.52.36-.9.85-1.17,1.25-1.09,1.58-1.57,3.39-1.93,5.13-.36,1.77-.5,3.64-.4,5.56l.32,6.06c-1.15.54-5.99,2.77-10.77,5.05-3.17,1.48-5.71,2.7-7.56,3.63-1.09.52-1.93.94-2.5,1.25-.99.52-1.53.81-1.3,1.51.04.12.17.98.29,2.19.03.23.15.44.35.58.19.13.42.18.65.12l16.06-3.86,4.01.29v50.47c0,2.95.26,5.78.77,8.35,1.79,9.3,5.89,15.26,13.5,14.52,5.36-.52,11.73-5.16,20.08-13.87,4.26-4.44,7.84-7.7,7.84-7.7v3.33c0,1.38-.01,4.43-.04,5.53-.24,8.4-1.81,9.22-10.88,10.67v1.98h32.59v-1.98c-8.75-1.44-10.55-2.14-10.86-10.67h-.01c-.03-1.45-.05-4.4-.05-5.69v-13.64l16.51-17.26v74.07c0,12.74-1.8,13.39-11.4,15.21v1.99h34.89v-1.99c-11.4-1.82-12.89-2.47-12.89-17.86v-24.97c.4.25.94.53,1.58.82,4.5,2.01,9.74,2.57,14.49,1.24,18.71-5.23,34.04-20.78,34.04-42.26,0-14.71-9.58-29.94-27.12-29.94ZM191.554,173.502c-5.79,0-12.24-1.81-15.88-5.95v-46.79c4.31-3.48,11.07-5.31,17.37-5.31,11.24,0,21.67,9.76,21.67,28.11,0,20.68-8.44,29.94-23.16,29.94Z"/>
</svg>