<?xml version="1.0" standalone="no"?>
<!DOCTYPE svg PUBLIC "-//W3C//DTD SVG 1.1//EN" "http://www.w3.org/Graphics/SVG/1.1/DTD/svg11.dtd">
<svg xmlns="http://www.w3.org/2000/svg" id="a" data-name="Calque 1" width="397.9679870605469" height="303.5150146484375" viewBox="0 0 397.968 303.515">
  <g>
    <path d="M236.356,246.966v-1.141c1.243,0,1.441-.154,1.47-1.411v-12.901h-.19c-2.56,0-3.862,1.104-4.271,3.481h-1.148l.768-4.651h12.14l.768,4.651h-1.148c-.41-2.377-1.711-3.481-4.271-3.481h-.19v12.901c.029,1.258.227,1.411,1.47,1.411v1.141h-5.397Z"/>
    <path d="M254.317,246.966v-1.141c.775,0,.819-.029.819-.176,0-.161-.102-.38-.336-.739l-2.128-2.933h-1.463v2.435c.022,1.258.219,1.411,1.47,1.411v1.141h-5.397v-1.141c1.243,0,1.441-.154,1.463-1.411v-11.511c-.022-1.251-.219-1.404-1.463-1.404v-1.148h6.67c.892,0,1.77.227,2.516.622,1.806.943,3.086,2.955,3.086,5.2,0,2.757-1.982,5.171-4,5.595l1.909,2.611c.878,1.229,1.075,1.448,2.253,1.448v1.141h-5.397ZM257.103,236.164c0-2.633-1.265-4.644-3.708-4.644h-2.187v9.295h2.187c2.443,0,3.708-2.011,3.708-4.651Z"/>
    <path d="M271.048,246.974v-1.148c.943,0,1.053-.059,1.053-.388,0-.234-.08-.549-.249-1.024l-1.441-3.979h-4.483l-1.419,3.913c-.183.49-.256.819-.256,1.053,0,.38.176.424,1.185.424v1.148h-4.337v-1.148c1.273,0,1.631-.205,2.194-1.565l5.046-13.91h1.031l5.024,13.859c.556,1.536.724,1.616,2.04,1.616v1.148h-5.39ZM268.174,234.256l-1.821,5.01h3.635l-1.814-5.01Z"/>
    <path d="M280.503,246.966l-5.032-13.866c-.563-1.543-.724-1.616-2.048-1.616v-1.148h5.405v1.148c-.951,0-1.068.059-1.068.388,0,.234.08.556.256,1.024l3.686,10.166,3.671-10.1c.176-.49.256-.819.256-1.06,0-.373-.176-.417-1.185-.417v-1.148h4.344v1.148c-1.28,0-1.631.212-2.194,1.565-5.456,15-3.788,8.681-5.054,13.918h-1.039Z"/>
    <path d="M290.177,246.974v-1.141c1.214,0,1.419-.146,1.463-1.287v-11.694c-.029-1.207-.227-1.353-1.463-1.353v-1.148h11.46l.768,4.651h-1.148c-.402-2.377-1.726-3.481-4.286-3.481h-2.867v4.915h1.536c.958,0,1.719-.541,2.004-1.419h1.141l-.936,4.395h-1.141c.117-.534.139-.68.139-.826,0-.651-.293-.973-1.273-.98h-1.47v8.198h3.357c3.298,0,4.264-2.933,4.681-5.353h1.156l-1.258,6.524h-11.862Z"/>
    <path d="M304.465,246.974v-1.141c1.214,0,1.419-.146,1.463-1.287v-11.636c0-1.229-.227-1.411-1.463-1.411v-1.148h5.397v1.148c-1.243,0-1.441.154-1.47,1.411v12.894h3.357c3.298,0,4.264-2.933,4.673-5.353h1.17l-1.265,6.524h-11.862Z"/>
    <path d="M325.451,246.966v-1.141c1.243,0,1.441-.154,1.463-1.411v-11.511c-.022-1.258-.219-1.411-1.463-1.411v-1.148h5.397v1.148c-1.243,0-1.441.154-1.47,1.411v11.511c.029,1.258.227,1.411,1.47,1.411v1.141h-5.397Z"/>
    <path d="M343.624,246.974l-8.747-13.281v10.29c0,1.682.19,1.85,1.463,1.85v1.141h-4.103v-1.141c1.28,0,1.47-.168,1.47-1.587v-11.168c0-1.411-.19-1.58-1.47-1.58v-1.148h3.386l8.762,13.303v-10.261c0-1.726-.197-1.894-1.47-1.894v-1.148h4.103v1.148c-1.273,0-1.463.168-1.463,1.894v10.546c0,1.726.19,1.894,1.463,1.894v1.141h-3.393Z"/>
    <path d="M235.819,273.955v-1.141c1.221,0,1.419-.146,1.463-1.287v-4.505l-3.393-7.423c-.519-1.068-.658-1.126-1.85-1.126v-1.148h5.397v1.148c-.914,0-.987.037-.987.322,0,.234.088.57.271,1.082l2.53,5.536,2.808-5.917c.124-.278.168-.475.168-.644,0-.307-.139-.38-1.031-.38v-1.148h4.154v1.148c-1.273,0-1.463.146-2.282,1.631l-3.32,6.992v4.147c0,1.404.19,1.572,1.477,1.572v1.141h-5.405Z"/>
    <path d="M247.343,271.505c-1.558-1.55-2.435-3.671-2.435-5.873s.878-4.315,2.435-5.873c1.55-1.558,3.671-2.435,5.873-2.435s4.315.878,5.873,2.435c1.558,1.558,2.435,3.679,2.435,5.873s-.878,4.322-2.435,5.873c-1.558,1.558-3.679,2.435-5.873,2.435s-4.322-.878-5.873-2.435ZM259.03,265.632c0-4.015-1.887-7.138-5.814-7.138s-5.822,3.123-5.822,7.138,1.887,7.138,5.822,7.138,5.814-3.123,5.814-7.138Z"/>
    <path d="M263.57,268.908v-9.083c-.029-1.207-.234-1.353-1.463-1.353v-1.148h5.397v1.148c-1.265,0-1.463.161-1.47,1.514v9.625c0,1.784,1.346,3.167,3.174,3.167,1.814,0,3.152-1.375,3.152-3.152v-9.785c-.029-1.221-.227-1.368-1.463-1.368v-1.148h5.39v1.148c-1.258,0-1.455.161-1.463,1.514v8.637c0,3.042-2.596,5.324-5.617,5.324s-5.544-2.274-5.639-5.039Z"/>
    <path d="M284.711,273.947v-1.141c.775,0,.819-.029.819-.176,0-.161-.102-.38-.336-.739l-2.128-2.933h-1.463v2.435c.022,1.258.219,1.411,1.47,1.411v1.141h-5.397v-1.141c1.243,0,1.441-.154,1.463-1.411v-11.511c-.022-1.251-.219-1.404-1.463-1.404v-1.148h6.67c.892,0,1.77.227,2.516.622,1.806.943,3.086,2.955,3.086,5.2,0,2.757-1.982,5.171-4,5.595l1.909,2.611c.878,1.229,1.075,1.448,2.253,1.448v1.141h-5.397ZM287.498,263.145c0-2.633-1.265-4.644-3.708-4.644h-2.187v9.295h2.187c2.443,0,3.708-2.011,3.708-4.651Z"/>
    <path d="M297.967,273.947v-1.141c1.243,0,1.441-.154,1.463-1.411v-11.511c-.022-1.258-.219-1.411-1.463-1.411v-1.148h6.67c.892,0,1.77.234,2.516.622,1.814.943,3.094,2.955,3.094,5.2s-1.28,4.256-3.094,5.2c-.746.388-1.624.614-2.516.614h-2.743v2.435c.029,1.258.227,1.411,1.47,1.411v1.141h-5.397ZM307.789,263.145c0-2.64-1.258-4.651-3.708-4.651h-2.187v9.295h2.187c2.45,0,3.708-2.004,3.708-4.644Z"/>
    <path d="M314.07,271.505c-1.558-1.55-2.435-3.671-2.435-5.873s.878-4.315,2.435-5.873c1.55-1.558,3.671-2.435,5.873-2.435s4.315.878,5.873,2.435c1.558,1.558,2.435,3.679,2.435,5.873s-.878,4.322-2.435,5.873c-1.558,1.558-3.679,2.435-5.873,2.435s-4.322-.878-5.873-2.435ZM325.757,265.632c0-4.015-1.887-7.138-5.814-7.138s-5.822,3.123-5.822,7.138,1.887,7.138,5.822,7.138,5.814-3.123,5.814-7.138Z"/>
    <path d="M335.327,273.318c-1.017-.417-1.916-1.024-2.713-1.821-.775-.79-1.375-1.689-1.792-2.699-.417-1.009-.629-2.062-.629-3.159,0-1.185.227-2.274.673-3.284.446-1.009,1.053-1.894,1.814-2.64.761-.753,1.624-1.338,2.596-1.763.973-.417,1.982-.629,3.028-.629.687,0,1.331.073,1.938.219.607.139,1.141.314,1.609.505.461.197.826.38,1.082.556l.219.095-1.039,4.176h-1.17c.146-.614.219-1.097.219-1.455,0-.344-.037-.666-.117-.965-.161-.578-.41-1.009-.746-1.287s-.673-.453-1.017-.541-.629-.132-.848-.139c-.783,0-1.514.19-2.209.57-.687.38-1.302.907-1.828,1.572-.534.658-.951,1.426-1.258,2.289-.3.863-.453,1.77-.453,2.721,0,.98.183,1.887.556,2.706.373.819.885,1.529,1.543,2.121.651.6,1.411,1.068,2.282,1.397s1.799.497,2.786.497c.344,0,.68-.029,1.009-.095s.673-.19,1.031-.373c.358-.19.804-.505,1.331-.958l.761.965c-1.726,1.368-3.547,2.048-5.463,2.048-1.119,0-2.187-.212-3.196-.629Z"/>
    <path d="M352.607,273.955v-1.141c.929,0,1.09-.088,1.09-.424,0-.197-.066-.446-.227-.812l-3.181-6.816-.987,1.039v5.595c.029,1.265.227,1.419,1.47,1.419v1.141h-5.397v-1.141c1.243,0,1.441-.154,1.463-1.411v-11.519c-.022-1.258-.219-1.411-1.463-1.411v-1.148h5.397v1.148c-1.243,0-1.441.154-1.47,1.411v4.22l4.644-4.937c.205-.219.256-.322.256-.424,0-.176-.263-.271-.695-.271l-.336.007v-1.156h4.293v1.148c-1.082,0-1.338.117-1.997.783l-3.364,3.576,3.92,8.41c.739,1.404.973,1.572,2.238,1.572v1.141h-5.653Z"/>
    <path d="M359.648,273.955v-1.141c1.214,0,1.419-.146,1.463-1.287v-11.694c-.029-1.207-.227-1.353-1.463-1.353v-1.148h11.46l.768,4.651h-1.148c-.402-2.377-1.726-3.481-4.286-3.481h-2.867v4.915h1.536c.958,0,1.719-.541,2.004-1.419h1.141l-.936,4.395h-1.141c.117-.534.139-.68.139-.826,0-.651-.293-.973-1.273-.98h-1.47v8.198h3.357c3.298,0,4.264-2.933,4.681-5.353h1.156l-1.258,6.524h-11.862Z"/>
    <path d="M377.417,273.947v-1.141c1.243,0,1.441-.154,1.47-1.411v-12.901h-.19c-2.56,0-3.862,1.104-4.271,3.481h-1.148l.768-4.651h12.14l.768,4.651h-1.148c-.41-2.377-1.711-3.481-4.271-3.481h-.19v12.901c.029,1.258.227,1.411,1.47,1.411v1.141h-5.397Z"/>
  </g>
  <g>
    <path d="M145.513,7.058c-7.287,0-14.241,5.621-14.241,14.241,0,7.599,6.954,13.886,13.908,13.886,7.954,0,14.242-6.287,14.242-13.886,0-8.62-6.288-14.241-13.909-14.241Z"/>
    <path d="M262.133,66.369c-5.29,0-12,3.16-19.86,6.96-6.9,3.33-19.54,10.08-26.16,14.04,0-9.91.67-19.34,1.01-24.31-11.59,5.98-28.81,11.59-42.38,13.91v3.31c16.56,3.63,20.17,5.32,20.17,25.5v1.23l-33.04,34.31v-34.56c0-14.89.32-34.42.67-41.03-13.26,6.28-27.8,10.26-41.04,12.92v3.29c17.52,3.33,18.84,4.96,18.84,27.46v53.13l-15.62,15.85c-1.76,1.72-3.53,3.44-5.41,5.01-1.41,1.16-2.88,2.26-4.45,3.21-5.68,3.41-7.47,3.87-13.41,5.13-1.21.27-2.53.24-3.85.24-6.06,0-11.72-1.81-15.55-8.58-3.08-5.4-4.98-13.98-4.98-27.34v-90.33l7.93-.55,32.12,7.91c.11.03.23.05.38.05.32,0,.65-.09.9-.27.26-.18.44-.4.56-.67.09-.18.11-.36.13-.49.29-2.42.54-4.14.61-4.41.48-1.39-.61-1.99-2.58-3.04-1.12-.6-2.81-1.45-4.98-2.53-3.56-1.77-8.61-4.21-15.1-7.34-9.64-4.62-19.53-9.26-21.63-10.26l.61-12.26c.29-5.45-.38-10.64-1.95-15.47-.65-2.01-1.43-3.72-2.42-5.33l-.22-.4c-.72-1.23-1.47-2.5-2.8-3.17-.42-.2-.89-.32-1.38-.39-1.16-.13-2.37.23-3.45.99-1.03.72-1.79,1.7-2.34,2.5-2.19,3.16-3.14,6.8-3.87,10.27-.7,3.55-.99,7.29-.79,11.14l.65,12.12c-2.32,1.09-11.99,5.55-21.56,10.11-6.35,2.97-11.43,5.41-15.14,7.25-2.17,1.05-3.85,1.9-5.01,2.52-1.97,1.03-3.06,1.61-2.59,3.02.07.23.33,1.95.58,4.38.05.47.29.88.69,1.17.38.26.85.35,1.3.24l32.16-7.73,8.01.58v101.02c0,5.9.53,11.56,1.54,16.71,3.6,18.62,11.79,30.54,27.03,29.06,10.73-1.05,23.47-10.33,40.19-27.76,8.53-8.89,15.69-15.4,15.69-15.4v6.65c0,2.77-.02,8.86-.07,11.07-.49,16.8-3.64,18.45-21.78,21.36v3.96h65.23v-3.96c-17.51-2.89-21.13-4.28-21.74-21.36h-.02c-.06-2.91-.09-8.81-.09-11.39v-27.3l33.04-34.54v148.24c0,25.5-3.61,26.81-22.82,30.46v3.98h69.83v-3.98c-22.82-3.65-25.81-4.96-25.81-35.76v-49.97c.82.5,1.88,1.06,3.17,1.64,9,4.02,19.5,5.14,29,2.48,37.46-10.47,68.14-41.58,68.14-84.58,0-29.44-19.19-59.92-54.29-59.92ZM247.913,198.799c-11.6,0-24.51-3.63-31.8-11.91v-93.65c8.63-6.96,22.18-10.63,34.78-10.63,22.5,0,43.38,19.54,43.38,56.27,0,41.38-16.9,59.92-46.36,59.92Z"/>
  </g>
</svg>